<svg xmlns="http://www.w3.org/2000/svg" viewBox="0 0 934 934" role="img" aria-labelledby="title"><title id="title">Mridha Construction and Consultancy</title><circle cx="467" cy="467" r="432" fill="#071d3b"/><circle cx="467" cy="467" r="432" fill="none" stroke="#b9985a" stroke-width="10"/><g fill="none" stroke="#e0c48b" stroke-linecap="round" stroke-linejoin="round"><path d="M300 575V370l167-130 167 130v205" stroke-width="30"/><path d="M300 370l167-130 167 130" stroke-width="22"/><path d="M330 575h274" stroke-width="24"/><path d="M467 410v54M438 437h58" stroke-width="16"/></g><g fill="#e0c48b"><rect x="405" y="405" width="38" height="38" rx="3"/><rect x="490" y="405" width="38" height="38" rx="3"/><rect x="405" y="460" width="38" height="38" rx="3"/><rect x="490" y="460" width="38" height="38" rx="3"/><path d="M615 360l70-45 8 16-70 45zM615 405l70-45 8 16-70 45zM615 450l70-45 8 16-70 45z"/></g><text x="467" y="700" text-anchor="middle" fill="#e0c48b" font-family="Arial, Helvetica, sans-serif" font-size="92" font-weight="600" letter-spacing="8">MRIDHA</text></svg>